<svg width="153" height="94" viewBox="0 0 153 94" fill="none" xmlns="http://www.w3.org/2000/svg">
<path d="M56.4545 58.0686C58.6636 55.9223 61.2 53.7363 64.0636 51.4707C64.2682 51.3118 64.4727 51.1528 64.6773 50.9938C67.1727 49.0462 69.9136 47.0589 72.8182 45.0716L72.9818 44.9524C73.2682 44.7537 77.1136 41.892 82.1864 36.884L82.1046 37.1622L78.75 51.7092C58.5409 65.3818 48.0682 78.3788 50.85 87.0036C51.4636 88.9114 53.7545 93.4425 61.4864 93.9592C71.7955 94.6746 77.9318 85.851 81.2045 78.339C84.2727 71.4232 85.5 64.4677 85.6636 63.5138L87.0136 57.1147L100.227 49.2847L95.7273 70.5488C95.7273 70.5488 95.6864 70.6283 95.6864 70.7873C94.7455 75.517 101.373 77.8223 103.868 73.649C107.468 67.5281 112.459 62.0034 118.759 57.5121C129.15 50.0796 141.341 46.741 153 47.2974C150.3 44.3165 145.964 43.2036 142.323 42.8459C139.132 42.5279 135.941 42.7664 132.873 43.4421C121.95 45.8268 113.973 50.6361 108.655 55.0081C108.614 55.0479 108.532 55.1274 108.491 55.1671L111.191 42.2894C131.4 28.6168 141.873 15.6199 139.091 6.99503C138.477 5.08723 136.186 0.55619 128.455 0.0394926C110.168 -1.19263 104.85 26.7885 104.236 30.4451L102.886 36.8442C99.6955 38.911 96.1364 41.1368 92.1682 43.4023L89.7545 44.6742L95.4409 19.0381C95.4409 19.0381 95.4409 19.0381 95.4409 18.9983C96.5455 14.2288 89.8364 11.7248 87.3 15.9379C86.7273 16.8918 86.1136 17.8059 85.4182 18.7201C77.4 29.2925 67.9909 36.8442 67.2136 37.4404C64.7182 39.1495 62.3455 40.8188 60.1364 42.5279C59.3591 40.3816 58.6636 37.9571 58.2136 35.1749C57.8864 32.5914 57.6818 29.7695 57.6818 26.7488L57.8045 23.2114C57.8045 23.1716 57.8045 23.1716 57.8045 23.1319C58.05 18.7996 52.0773 17.17 49.9091 20.9856C49.4591 21.7408 49.0091 22.496 48.5182 23.2511C45 28.6963 40.3773 33.6248 34.6909 37.6789C24.1364 45.2306 11.8227 48.5295 0 47.8539C2.7 51.113 7.2 52.2657 10.9636 52.6631C14.1545 52.9811 17.3455 52.7426 20.4136 52.0669C31.3364 49.6822 39.4364 45.0319 44.6318 40.5009L48.7227 36.884L49.1727 36.4865C49.1727 36.4865 49.95 42.8856 51.9955 49.2052C52.0773 49.4835 52.1591 49.7219 52.2818 50.0001C52.3636 50.0399 53.55 54.1337 56.4545 58.0686ZM128.495 8.7836C129.682 8.86309 130.418 10.0157 130.05 11.0491C129.395 12.9569 127.595 16.1763 123.3 20.6676C121.173 22.8934 118.186 25.7154 114.055 28.9745C116.141 20.5087 121.214 8.30665 128.495 8.7836ZM61.4864 85.4138C61.4455 85.4138 61.4455 85.4138 61.4864 85.4138C60.3 85.3343 59.7682 84.4996 59.9318 83.1483C60.1773 81.161 62.3864 78.021 66.6818 73.5297C68.8091 71.304 71.7955 68.5218 75.9273 65.2228C73.8409 73.6887 68.7273 85.8907 61.4864 85.4138Z" fill="#FE8C6D"/>
<path d="M56.4545 58.0686C58.6636 55.9223 61.2 53.7363 64.0636 51.4707C64.2682 51.3118 64.4727 51.1528 64.6773 50.9938C67.1727 49.0462 69.9136 47.0589 72.8182 45.0716L72.9818 44.9524C73.2682 44.7537 77.1136 41.892 82.1864 36.884L82.1046 37.1622L78.75 51.7092C58.5409 65.3818 48.0682 78.3788 50.85 87.0036C51.4636 88.9114 53.7545 93.4425 61.4864 93.9592C71.7955 94.6746 77.9318 85.851 81.2045 78.339C84.2727 71.4232 85.5 64.4677 85.6636 63.5138L87.0136 57.1147L100.227 49.2847L95.7273 70.5488C95.7273 70.5488 95.6864 70.6283 95.6864 70.7873C94.7455 75.517 101.373 77.8223 103.868 73.649C107.468 67.5281 112.459 62.0034 118.759 57.5121C129.15 50.0796 141.341 46.741 153 47.2974C150.3 44.3165 145.964 43.2036 142.323 42.8459C139.132 42.5279 135.941 42.7664 132.873 43.4421C121.95 45.8268 113.973 50.6361 108.655 55.0081C108.614 55.0479 108.532 55.1274 108.491 55.1671L111.191 42.2894C131.4 28.6168 141.873 15.6199 139.091 6.99503C138.477 5.08723 136.186 0.55619 128.455 0.0394926C110.168 -1.19263 104.85 26.7885 104.236 30.4451L102.886 36.8442C99.6955 38.911 96.1364 41.1368 92.1682 43.4023L89.7545 44.6742L95.4409 19.0381C95.4409 19.0381 95.4409 19.0381 95.4409 18.9983C96.5455 14.2288 89.8364 11.7248 87.3 15.9379C86.7273 16.8918 86.1136 17.8059 85.4182 18.7201C77.4 29.2925 67.9909 36.8442 67.2136 37.4404C64.7182 39.1495 62.3455 40.8188 60.1364 42.5279C59.3591 40.3816 58.6636 37.9571 58.2136 35.1749C57.8864 32.5914 57.6818 29.7695 57.6818 26.7488L57.8045 23.2114C57.8045 23.1716 57.8045 23.1716 57.8045 23.1319C58.05 18.7996 52.0773 17.17 49.9091 20.9856C49.4591 21.7408 49.0091 22.496 48.5182 23.2511C45 28.6963 40.3773 33.6248 34.6909 37.6789C24.1364 45.2306 11.8227 48.5295 0 47.8539C2.7 51.113 7.2 52.2657 10.9636 52.6631C14.1545 52.9811 17.3455 52.7426 20.4136 52.0669C31.3364 49.6822 39.4364 45.0319 44.6318 40.5009L48.7227 36.884L49.1727 36.4865C49.1727 36.4865 49.95 42.8856 51.9955 49.2052C52.0773 49.4835 52.1591 49.7219 52.2818 50.0001C52.3636 50.0399 53.55 54.1337 56.4545 58.0686ZM128.495 8.7836C129.682 8.86309 130.418 10.0157 130.05 11.0491C129.395 12.9569 127.595 16.1763 123.3 20.6676C121.173 22.8934 118.186 25.7154 114.055 28.9745C116.141 20.5087 121.214 8.30665 128.495 8.7836ZM61.4864 85.4138C61.4455 85.4138 61.4455 85.4138 61.4864 85.4138C60.3 85.3343 59.7682 84.4996 59.9318 83.1483C60.1773 81.161 62.3864 78.021 66.6818 73.5297C68.8091 71.304 71.7955 68.5218 75.9273 65.2228C73.8409 73.6887 68.7273 85.8907 61.4864 85.4138Z" fill="url(#paint0_linear)"/>
<defs>
<linearGradient id="paint0_linear" x1="104.198" y1="104.682" x2="105.358" y2="-15.3834" gradientUnits="userSpaceOnUse">
<stop offset="0.0703831" stop-color="#FE7BA4"/>
<stop offset="1" stop-color="#FE8C6D"/>
</linearGradient>
</defs>
</svg>
