<svg width="61" height="95" viewBox="0 0 61 95" fill="none" xmlns="http://www.w3.org/2000/svg">
<path d="M5.18 87.71L5.67 86.67C5.02 86.24 4.13 85.95 3.22 85.95C1.7 85.95 0.67 86.7 0.67 87.9C0.67 90.39 4.45 89.52 4.45 91.08C4.45 91.62 3.96 91.93 3.14 91.93C2.39 91.93 1.49 91.57 0.77 90.91L0.26 91.93C0.98 92.59 2.02 93.04 3.12 93.04C4.66 93.04 5.76 92.27 5.76 91.02C5.77 88.5 1.99 89.32 1.99 87.79C1.99 87.32 2.44 87.06 3.13 87.06C3.66 87.06 4.42 87.25 5.18 87.71ZM10.8207 89.25L11.4507 88.51C10.9607 87.95 10.2107 87.64 9.2507 87.64C7.6707 87.64 6.5707 88.74 6.5707 90.35C6.5707 91.95 7.6707 93.04 9.2507 93.04C10.2607 93.04 11.0307 92.68 11.5107 92.05L10.8707 91.41C10.5107 91.83 9.9707 92.05 9.3007 92.05C8.3807 92.05 7.7207 91.36 7.7207 90.35C7.7207 89.34 8.3807 88.65 9.3007 88.65C9.9407 88.64 10.4507 88.87 10.8207 89.25ZM13.8652 88.74V87.68H12.7152V93H13.8652V90.22C13.9552 89.31 14.6352 88.68 15.7052 88.74V87.64C14.8652 87.64 14.2252 88.02 13.8652 88.74ZM18.9308 87.64C17.2808 87.64 16.1508 88.73 16.1508 90.33C16.1508 91.94 17.2808 93.04 18.9308 93.04C20.5708 93.04 21.7008 91.94 21.7008 90.33C21.7008 88.73 20.5708 87.64 18.9308 87.64ZM18.9308 88.62C19.8808 88.62 20.5508 89.33 20.5508 90.35C20.5508 91.38 19.8808 92.08 18.9308 92.08C17.9708 92.08 17.3008 91.38 17.3008 90.35C17.3008 89.33 17.9708 88.62 18.9308 88.62ZM22.9508 85.58V93H24.1008V85.58H22.9508ZM25.9 85.58V93H27.05V85.58H25.9ZM34.7373 86H31.8673V93H34.7073C36.8273 93 38.3573 91.52 38.3573 89.5C38.3573 87.47 36.8373 86 34.7373 86ZM34.7673 91.94H33.0473V87.06H34.7173C36.0973 87.06 37.1673 88.08 37.1673 89.51C37.1673 90.93 36.1273 91.94 34.7673 91.94ZM41.8312 87.64C40.1812 87.64 39.0512 88.73 39.0512 90.33C39.0512 91.94 40.1812 93.04 41.8312 93.04C43.4712 93.04 44.6012 91.94 44.6012 90.33C44.6012 88.73 43.4712 87.64 41.8312 87.64ZM41.8312 88.62C42.7812 88.62 43.4512 89.33 43.4512 90.35C43.4512 91.38 42.7812 92.08 41.8312 92.08C40.8712 92.08 40.2012 91.38 40.2012 90.35C40.2012 89.33 40.8712 88.62 41.8312 88.62ZM44.7659 87.68L46.7259 93H47.9059L49.2559 89.06L50.6059 93H51.7959L53.7359 87.68H52.5659L51.2059 91.86L49.8559 87.68H48.6659L47.3259 91.86L45.9459 87.68H44.7659ZM57.7002 87.64C56.8002 87.64 56.1202 87.96 55.7402 88.7V87.68H54.5902V93H55.7402V90.17C55.8202 89.34 56.3702 88.73 57.2502 88.72C58.0502 88.72 58.5302 89.21 58.5302 90.01V93H59.6802V89.69C59.6802 88.42 58.9402 87.64 57.7002 87.64Z" fill="#FE7BA4"/>
<path d="M5.18 87.71L5.67 86.67C5.02 86.24 4.13 85.95 3.22 85.95C1.7 85.95 0.67 86.7 0.67 87.9C0.67 90.39 4.45 89.52 4.45 91.08C4.45 91.62 3.96 91.93 3.14 91.93C2.39 91.93 1.49 91.57 0.77 90.91L0.26 91.93C0.98 92.59 2.02 93.04 3.12 93.04C4.66 93.04 5.76 92.27 5.76 91.02C5.77 88.5 1.99 89.32 1.99 87.79C1.99 87.32 2.44 87.06 3.13 87.06C3.66 87.06 4.42 87.25 5.18 87.71ZM10.8207 89.25L11.4507 88.51C10.9607 87.95 10.2107 87.64 9.2507 87.64C7.6707 87.64 6.5707 88.74 6.5707 90.35C6.5707 91.95 7.6707 93.04 9.2507 93.04C10.2607 93.04 11.0307 92.68 11.5107 92.05L10.8707 91.41C10.5107 91.83 9.9707 92.05 9.3007 92.05C8.3807 92.05 7.7207 91.36 7.7207 90.35C7.7207 89.34 8.3807 88.65 9.3007 88.65C9.9407 88.64 10.4507 88.87 10.8207 89.25ZM13.8652 88.74V87.68H12.7152V93H13.8652V90.22C13.9552 89.31 14.6352 88.68 15.7052 88.74V87.64C14.8652 87.64 14.2252 88.02 13.8652 88.74ZM18.9308 87.64C17.2808 87.64 16.1508 88.73 16.1508 90.33C16.1508 91.94 17.2808 93.04 18.9308 93.04C20.5708 93.04 21.7008 91.94 21.7008 90.33C21.7008 88.73 20.5708 87.64 18.9308 87.64ZM18.9308 88.62C19.8808 88.62 20.5508 89.33 20.5508 90.35C20.5508 91.38 19.8808 92.08 18.9308 92.08C17.9708 92.08 17.3008 91.38 17.3008 90.35C17.3008 89.33 17.9708 88.62 18.9308 88.62ZM22.9508 85.58V93H24.1008V85.58H22.9508ZM25.9 85.58V93H27.05V85.58H25.9ZM34.7373 86H31.8673V93H34.7073C36.8273 93 38.3573 91.52 38.3573 89.5C38.3573 87.47 36.8373 86 34.7373 86ZM34.7673 91.94H33.0473V87.06H34.7173C36.0973 87.06 37.1673 88.08 37.1673 89.51C37.1673 90.93 36.1273 91.94 34.7673 91.94ZM41.8312 87.64C40.1812 87.64 39.0512 88.73 39.0512 90.33C39.0512 91.94 40.1812 93.04 41.8312 93.04C43.4712 93.04 44.6012 91.94 44.6012 90.33C44.6012 88.73 43.4712 87.64 41.8312 87.64ZM41.8312 88.62C42.7812 88.62 43.4512 89.33 43.4512 90.35C43.4512 91.38 42.7812 92.08 41.8312 92.08C40.8712 92.08 40.2012 91.38 40.2012 90.35C40.2012 89.33 40.8712 88.62 41.8312 88.62ZM44.7659 87.68L46.7259 93H47.9059L49.2559 89.06L50.6059 93H51.7959L53.7359 87.68H52.5659L51.2059 91.86L49.8559 87.68H48.6659L47.3259 91.86L45.9459 87.68H44.7659ZM57.7002 87.64C56.8002 87.64 56.1202 87.96 55.7402 88.7V87.68H54.5902V93H55.7402V90.17C55.8202 89.34 56.3702 88.73 57.2502 88.72C58.0502 88.72 58.5302 89.21 58.5302 90.01V93H59.6802V89.69C59.6802 88.42 58.9402 87.64 57.7002 87.64Z" fill="url(#paint0_linear)"/>
<rect x="7.5" y="0.5" width="45" height="71" rx="19.5" fill="white"/>
<rect x="7.5" y="0.5" width="45" height="71" rx="19.5" stroke="#FE8C6D"/>
<rect x="7.5" y="0.5" width="45" height="71" rx="19.5" stroke="url(#paint1_linear)"/>
<circle cx="31" cy="58" r="2" fill="#FE8C6D"/>
<circle cx="31" cy="58" r="2" fill="url(#paint2_linear)"/>
<defs>
<linearGradient id="paint0_linear" x1="30.5" y1="83" x2="30.5" y2="95" gradientUnits="userSpaceOnUse">
<stop stop-color="#FE8C6D"/>
<stop offset="1" stop-color="white" stop-opacity="0"/>
</linearGradient>
<linearGradient id="paint1_linear" x1="30" y1="0" x2="30" y2="72" gradientUnits="userSpaceOnUse">
<stop stop-color="#FE7BA4"/>
<stop offset="1" stop-color="white" stop-opacity="0"/>
</linearGradient>
<linearGradient id="paint2_linear" x1="31" y1="59" x2="31" y2="56" gradientUnits="userSpaceOnUse">
<stop stop-color="#FE7BA4"/>
<stop offset="1" stop-color="white" stop-opacity="0"/>
</linearGradient>
</defs>
</svg>
